<mxfile host="app.diagrams.net" modified="2025-04-14T13:46:06.540Z" agent="Mozilla/5.0 (Windows NT 10.0; Win64; x64) AppleWebKit/537.36 (KHTML, like Gecko) Chrome/135.0.0.0 Safari/537.36 Edg/135.0.0.0" etag="rGXS-jLUU3oWjvZETAWy" version="24.7.0" type="github">
  <diagram name="第 1 页" id="NQLv_MpmytoHFFUW08y5">
    <mxGraphModel dx="986" dy="509" grid="1" gridSize="10" guides="1" tooltips="1" connect="1" arrows="1" fold="1" page="1" pageScale="1" pageWidth="827" pageHeight="1169" math="0" shadow="0">
      <root>
        <mxCell id="0" />
        <mxCell id="1" parent="0" />
        <mxCell id="dZm226O0PP0LnAUSpwi5-7" value="" style="rounded=0;whiteSpace=wrap;html=1;" vertex="1" parent="1">
          <mxGeometry x="480" y="80" width="290" height="120" as="geometry" />
        </mxCell>
        <mxCell id="dZm226O0PP0LnAUSpwi5-3" value="" style="rounded=0;whiteSpace=wrap;html=1;" vertex="1" parent="1">
          <mxGeometry x="120" y="80" width="290" height="120" as="geometry" />
        </mxCell>
        <mxCell id="dZm226O0PP0LnAUSpwi5-1" value="业务单据模型" style="rounded=0;whiteSpace=wrap;html=1;" vertex="1" parent="1">
          <mxGeometry x="140" y="120" width="120" height="60" as="geometry" />
        </mxCell>
        <mxCell id="dZm226O0PP0LnAUSpwi5-2" value="全局参数模型" style="rounded=0;whiteSpace=wrap;html=1;" vertex="1" parent="1">
          <mxGeometry x="280" y="120" width="120" height="60" as="geometry" />
        </mxCell>
        <mxCell id="dZm226O0PP0LnAUSpwi5-4" value="通用模型" style="text;html=1;align=center;verticalAlign=middle;whiteSpace=wrap;rounded=0;" vertex="1" parent="1">
          <mxGeometry x="120" y="80" width="60" height="30" as="geometry" />
        </mxCell>
        <mxCell id="dZm226O0PP0LnAUSpwi5-5" value="仓库模型&lt;div&gt;库区模型&lt;/div&gt;&lt;div&gt;库位模型&lt;/div&gt;" style="rounded=0;whiteSpace=wrap;html=1;" vertex="1" parent="1">
          <mxGeometry x="640" y="120" width="120" height="60" as="geometry" />
        </mxCell>
        <mxCell id="dZm226O0PP0LnAUSpwi5-6" value="产品基础信息&lt;div&gt;产品分类&lt;/div&gt;&lt;div&gt;产品存储信息&lt;/div&gt;&lt;div&gt;产品属性&lt;/div&gt;" style="rounded=0;whiteSpace=wrap;html=1;" vertex="1" parent="1">
          <mxGeometry x="490" y="120" width="120" height="60" as="geometry" />
        </mxCell>
        <mxCell id="dZm226O0PP0LnAUSpwi5-8" value="仓储基础" style="text;html=1;align=center;verticalAlign=middle;whiteSpace=wrap;rounded=0;" vertex="1" parent="1">
          <mxGeometry x="480" y="80" width="60" height="30" as="geometry" />
        </mxCell>
        <mxCell id="dZm226O0PP0LnAUSpwi5-13" style="edgeStyle=orthogonalEdgeStyle;rounded=0;orthogonalLoop=1;jettySize=auto;html=1;exitX=0.5;exitY=1;exitDx=0;exitDy=0;entryX=0.5;entryY=0;entryDx=0;entryDy=0;" edge="1" parent="1" source="dZm226O0PP0LnAUSpwi5-9" target="dZm226O0PP0LnAUSpwi5-11">
          <mxGeometry relative="1" as="geometry" />
        </mxCell>
        <mxCell id="dZm226O0PP0LnAUSpwi5-9" value="ASN单" style="rounded=1;whiteSpace=wrap;html=1;" vertex="1" parent="1">
          <mxGeometry x="360" y="240" width="120" height="60" as="geometry" />
        </mxCell>
        <mxCell id="dZm226O0PP0LnAUSpwi5-43" style="edgeStyle=orthogonalEdgeStyle;rounded=0;orthogonalLoop=1;jettySize=auto;html=1;exitX=0.5;exitY=1;exitDx=0;exitDy=0;entryX=0.5;entryY=0;entryDx=0;entryDy=0;" edge="1" parent="1" source="dZm226O0PP0LnAUSpwi5-11" target="dZm226O0PP0LnAUSpwi5-41">
          <mxGeometry relative="1" as="geometry" />
        </mxCell>
        <mxCell id="dZm226O0PP0LnAUSpwi5-47" value="是" style="edgeLabel;html=1;align=center;verticalAlign=middle;resizable=0;points=[];" vertex="1" connectable="0" parent="dZm226O0PP0LnAUSpwi5-43">
          <mxGeometry x="-0.2571" relative="1" as="geometry">
            <mxPoint as="offset" />
          </mxGeometry>
        </mxCell>
        <mxCell id="dZm226O0PP0LnAUSpwi5-48" style="edgeStyle=orthogonalEdgeStyle;rounded=0;orthogonalLoop=1;jettySize=auto;html=1;exitX=0;exitY=0.5;exitDx=0;exitDy=0;entryX=0;entryY=0.5;entryDx=0;entryDy=0;" edge="1" parent="1" source="dZm226O0PP0LnAUSpwi5-11" target="dZm226O0PP0LnAUSpwi5-42">
          <mxGeometry relative="1" as="geometry">
            <Array as="points">
              <mxPoint x="280" y="380" />
              <mxPoint x="280" y="650" />
            </Array>
          </mxGeometry>
        </mxCell>
        <mxCell id="dZm226O0PP0LnAUSpwi5-49" value="否" style="edgeLabel;html=1;align=center;verticalAlign=middle;resizable=0;points=[];" vertex="1" connectable="0" parent="dZm226O0PP0LnAUSpwi5-48">
          <mxGeometry x="0.017" relative="1" as="geometry">
            <mxPoint as="offset" />
          </mxGeometry>
        </mxCell>
        <mxCell id="dZm226O0PP0LnAUSpwi5-11" value="是否检验" style="rhombus;whiteSpace=wrap;html=1;" vertex="1" parent="1">
          <mxGeometry x="380" y="340" width="80" height="80" as="geometry" />
        </mxCell>
        <mxCell id="dZm226O0PP0LnAUSpwi5-34" style="edgeStyle=orthogonalEdgeStyle;rounded=0;orthogonalLoop=1;jettySize=auto;html=1;exitX=0.5;exitY=1;exitDx=0;exitDy=0;entryX=0.5;entryY=0;entryDx=0;entryDy=0;" edge="1" parent="1" source="dZm226O0PP0LnAUSpwi5-27" target="dZm226O0PP0LnAUSpwi5-33">
          <mxGeometry relative="1" as="geometry" />
        </mxCell>
        <mxCell id="dZm226O0PP0LnAUSpwi5-27" value="配送作业" style="rounded=1;whiteSpace=wrap;html=1;" vertex="1" parent="1">
          <mxGeometry x="360" y="773" width="120" height="60" as="geometry" />
        </mxCell>
        <mxCell id="dZm226O0PP0LnAUSpwi5-37" style="edgeStyle=orthogonalEdgeStyle;rounded=0;orthogonalLoop=1;jettySize=auto;html=1;exitX=0.5;exitY=1;exitDx=0;exitDy=0;" edge="1" parent="1" source="dZm226O0PP0LnAUSpwi5-32" target="dZm226O0PP0LnAUSpwi5-36">
          <mxGeometry relative="1" as="geometry" />
        </mxCell>
        <mxCell id="dZm226O0PP0LnAUSpwi5-38" value="是" style="edgeLabel;html=1;align=center;verticalAlign=middle;resizable=0;points=[];" vertex="1" connectable="0" parent="dZm226O0PP0LnAUSpwi5-37">
          <mxGeometry x="-0.0508" y="-1" relative="1" as="geometry">
            <mxPoint as="offset" />
          </mxGeometry>
        </mxCell>
        <mxCell id="dZm226O0PP0LnAUSpwi5-54" style="edgeStyle=orthogonalEdgeStyle;rounded=0;orthogonalLoop=1;jettySize=auto;html=1;exitX=1;exitY=0.5;exitDx=0;exitDy=0;entryX=1;entryY=0.5;entryDx=0;entryDy=0;" edge="1" parent="1" source="dZm226O0PP0LnAUSpwi5-32" target="dZm226O0PP0LnAUSpwi5-52">
          <mxGeometry relative="1" as="geometry">
            <Array as="points">
              <mxPoint x="530" y="1073" />
              <mxPoint x="530" y="1340" />
            </Array>
          </mxGeometry>
        </mxCell>
        <mxCell id="dZm226O0PP0LnAUSpwi5-55" value="否" style="edgeLabel;html=1;align=center;verticalAlign=middle;resizable=0;points=[];" vertex="1" connectable="0" parent="dZm226O0PP0LnAUSpwi5-54">
          <mxGeometry x="0.0388" relative="1" as="geometry">
            <mxPoint as="offset" />
          </mxGeometry>
        </mxCell>
        <mxCell id="dZm226O0PP0LnAUSpwi5-32" value="是否上架" style="rhombus;whiteSpace=wrap;html=1;" vertex="1" parent="1">
          <mxGeometry x="380" y="1033" width="80" height="80" as="geometry" />
        </mxCell>
        <mxCell id="dZm226O0PP0LnAUSpwi5-35" style="edgeStyle=orthogonalEdgeStyle;rounded=0;orthogonalLoop=1;jettySize=auto;html=1;exitX=0.5;exitY=1;exitDx=0;exitDy=0;entryX=0.5;entryY=0;entryDx=0;entryDy=0;" edge="1" parent="1" source="dZm226O0PP0LnAUSpwi5-33" target="dZm226O0PP0LnAUSpwi5-32">
          <mxGeometry relative="1" as="geometry" />
        </mxCell>
        <mxCell id="dZm226O0PP0LnAUSpwi5-33" value="入库汇总" style="rounded=1;whiteSpace=wrap;html=1;" vertex="1" parent="1">
          <mxGeometry x="360" y="903" width="120" height="60" as="geometry" />
        </mxCell>
        <mxCell id="dZm226O0PP0LnAUSpwi5-53" style="edgeStyle=orthogonalEdgeStyle;rounded=0;orthogonalLoop=1;jettySize=auto;html=1;exitX=0.5;exitY=1;exitDx=0;exitDy=0;entryX=0.5;entryY=0;entryDx=0;entryDy=0;" edge="1" parent="1" source="dZm226O0PP0LnAUSpwi5-36" target="dZm226O0PP0LnAUSpwi5-52">
          <mxGeometry relative="1" as="geometry" />
        </mxCell>
        <mxCell id="dZm226O0PP0LnAUSpwi5-36" value="上架作业" style="rounded=1;whiteSpace=wrap;html=1;" vertex="1" parent="1">
          <mxGeometry x="360" y="1183" width="120" height="60" as="geometry" />
        </mxCell>
        <mxCell id="dZm226O0PP0LnAUSpwi5-46" style="edgeStyle=orthogonalEdgeStyle;rounded=0;orthogonalLoop=1;jettySize=auto;html=1;exitX=0.5;exitY=1;exitDx=0;exitDy=0;" edge="1" parent="1" source="dZm226O0PP0LnAUSpwi5-41" target="dZm226O0PP0LnAUSpwi5-42">
          <mxGeometry relative="1" as="geometry" />
        </mxCell>
        <mxCell id="dZm226O0PP0LnAUSpwi5-41" value="检验作业" style="rounded=1;whiteSpace=wrap;html=1;" vertex="1" parent="1">
          <mxGeometry x="360" y="490" width="120" height="60" as="geometry" />
        </mxCell>
        <mxCell id="dZm226O0PP0LnAUSpwi5-44" style="edgeStyle=orthogonalEdgeStyle;rounded=0;orthogonalLoop=1;jettySize=auto;html=1;exitX=0.5;exitY=1;exitDx=0;exitDy=0;entryX=0.5;entryY=0;entryDx=0;entryDy=0;" edge="1" parent="1" source="dZm226O0PP0LnAUSpwi5-42" target="dZm226O0PP0LnAUSpwi5-27">
          <mxGeometry relative="1" as="geometry" />
        </mxCell>
        <mxCell id="dZm226O0PP0LnAUSpwi5-45" value="是" style="edgeLabel;html=1;align=center;verticalAlign=middle;resizable=0;points=[];" vertex="1" connectable="0" parent="dZm226O0PP0LnAUSpwi5-44">
          <mxGeometry x="-0.2048" relative="1" as="geometry">
            <mxPoint as="offset" />
          </mxGeometry>
        </mxCell>
        <mxCell id="dZm226O0PP0LnAUSpwi5-50" style="edgeStyle=orthogonalEdgeStyle;rounded=0;orthogonalLoop=1;jettySize=auto;html=1;exitX=1;exitY=0.5;exitDx=0;exitDy=0;entryX=1;entryY=0.5;entryDx=0;entryDy=0;" edge="1" parent="1" source="dZm226O0PP0LnAUSpwi5-42" target="dZm226O0PP0LnAUSpwi5-33">
          <mxGeometry relative="1" as="geometry">
            <Array as="points">
              <mxPoint x="530" y="650" />
              <mxPoint x="530" y="933" />
            </Array>
          </mxGeometry>
        </mxCell>
        <mxCell id="dZm226O0PP0LnAUSpwi5-51" value="否" style="edgeLabel;html=1;align=center;verticalAlign=middle;resizable=0;points=[];" vertex="1" connectable="0" parent="dZm226O0PP0LnAUSpwi5-50">
          <mxGeometry x="0.0521" y="2" relative="1" as="geometry">
            <mxPoint as="offset" />
          </mxGeometry>
        </mxCell>
        <mxCell id="dZm226O0PP0LnAUSpwi5-42" value="是否配送" style="rhombus;whiteSpace=wrap;html=1;" vertex="1" parent="1">
          <mxGeometry x="380" y="610" width="80" height="80" as="geometry" />
        </mxCell>
        <mxCell id="dZm226O0PP0LnAUSpwi5-52" value="库存明细" style="rounded=1;whiteSpace=wrap;html=1;" vertex="1" parent="1">
          <mxGeometry x="360" y="1310" width="120" height="60" as="geometry" />
        </mxCell>
        <mxCell id="dZm226O0PP0LnAUSpwi5-68" style="edgeStyle=orthogonalEdgeStyle;rounded=0;orthogonalLoop=1;jettySize=auto;html=1;exitX=0.5;exitY=1;exitDx=0;exitDy=0;entryX=1;entryY=0;entryDx=0;entryDy=0;" edge="1" parent="1" source="dZm226O0PP0LnAUSpwi5-60" target="dZm226O0PP0LnAUSpwi5-42">
          <mxGeometry relative="1" as="geometry" />
        </mxCell>
        <mxCell id="dZm226O0PP0LnAUSpwi5-60" value="生产收货作业" style="rounded=1;whiteSpace=wrap;html=1;" vertex="1" parent="1">
          <mxGeometry x="540" y="550" width="120" height="60" as="geometry" />
        </mxCell>
        <mxCell id="dZm226O0PP0LnAUSpwi5-69" style="edgeStyle=orthogonalEdgeStyle;rounded=0;orthogonalLoop=1;jettySize=auto;html=1;exitX=0.5;exitY=1;exitDx=0;exitDy=0;entryX=1;entryY=0;entryDx=0;entryDy=0;" edge="1" parent="1" source="dZm226O0PP0LnAUSpwi5-61" target="dZm226O0PP0LnAUSpwi5-42">
          <mxGeometry relative="1" as="geometry" />
        </mxCell>
        <mxCell id="dZm226O0PP0LnAUSpwi5-61" value="生产退料作业" style="rounded=1;whiteSpace=wrap;html=1;" vertex="1" parent="1">
          <mxGeometry x="680" y="550" width="120" height="60" as="geometry" />
        </mxCell>
        <mxCell id="dZm226O0PP0LnAUSpwi5-70" style="edgeStyle=orthogonalEdgeStyle;rounded=0;orthogonalLoop=1;jettySize=auto;html=1;exitX=0.5;exitY=1;exitDx=0;exitDy=0;entryX=1;entryY=0;entryDx=0;entryDy=0;" edge="1" parent="1" source="dZm226O0PP0LnAUSpwi5-62" target="dZm226O0PP0LnAUSpwi5-42">
          <mxGeometry relative="1" as="geometry" />
        </mxCell>
        <mxCell id="dZm226O0PP0LnAUSpwi5-62" value="销售退货作业" style="rounded=1;whiteSpace=wrap;html=1;" vertex="1" parent="1">
          <mxGeometry x="827" y="550" width="120" height="60" as="geometry" />
        </mxCell>
        <mxCell id="dZm226O0PP0LnAUSpwi5-66" style="edgeStyle=orthogonalEdgeStyle;rounded=0;orthogonalLoop=1;jettySize=auto;html=1;exitX=1;exitY=0.5;exitDx=0;exitDy=0;entryX=0;entryY=0.25;entryDx=0;entryDy=0;" edge="1" parent="1" source="dZm226O0PP0LnAUSpwi5-63" target="dZm226O0PP0LnAUSpwi5-33">
          <mxGeometry relative="1" as="geometry" />
        </mxCell>
        <mxCell id="dZm226O0PP0LnAUSpwi5-63" value="&lt;span style=&quot;color: rgba(0, 0, 0, 0); font-family: monospace; font-size: 0px; text-align: start; text-wrap-mode: nowrap;&quot;&gt;%3CmxGraphModel%3E%3Croot%3E%3CmxCell%20id%3D%220%22%2F%3E%3CmxCell%20id%3D%221%22%20parent%3D%220%22%2F%3E%3CmxCell%20id%3D%222%22%20value%3D%22%E9%94%80%E5%94%AE%E9%80%80%E8%B4%A7%E4%BD%9C%E4%B8%9A%22%20style%3D%22rounded%3D1%3BwhiteSpace%3Dwrap%3Bhtml%3D1%3B%22%20vertex%3D%221%22%20parent%3D%221%22%3E%3CmxGeometry%20x%3D%22827%22%20y%3D%22550%22%20width%3D%22120%22%20height%3D%2260%22%20as%3D%22geometry%22%2F%3E%3C%2FmxCell%3E%3C%2Froot%3E%3C%2FmxGraphModel%3E&lt;/span&gt;杂收作业" style="rounded=1;whiteSpace=wrap;html=1;" vertex="1" parent="1">
          <mxGeometry x="160" y="820" width="120" height="60" as="geometry" />
        </mxCell>
        <mxCell id="dZm226O0PP0LnAUSpwi5-67" style="edgeStyle=orthogonalEdgeStyle;rounded=0;orthogonalLoop=1;jettySize=auto;html=1;exitX=1;exitY=0.5;exitDx=0;exitDy=0;entryX=0;entryY=0.75;entryDx=0;entryDy=0;" edge="1" parent="1" source="dZm226O0PP0LnAUSpwi5-64" target="dZm226O0PP0LnAUSpwi5-33">
          <mxGeometry relative="1" as="geometry" />
        </mxCell>
        <mxCell id="dZm226O0PP0LnAUSpwi5-64" value="借出还入作业" style="rounded=1;whiteSpace=wrap;html=1;" vertex="1" parent="1">
          <mxGeometry x="160" y="980" width="120" height="60" as="geometry" />
        </mxCell>
        <mxCell id="dZm226O0PP0LnAUSpwi5-113" style="edgeStyle=orthogonalEdgeStyle;rounded=0;orthogonalLoop=1;jettySize=auto;html=1;exitX=0.5;exitY=1;exitDx=0;exitDy=0;entryX=0.5;entryY=0;entryDx=0;entryDy=0;" edge="1" parent="1" source="dZm226O0PP0LnAUSpwi5-72" target="dZm226O0PP0LnAUSpwi5-90">
          <mxGeometry relative="1" as="geometry" />
        </mxCell>
        <mxCell id="dZm226O0PP0LnAUSpwi5-72" value="销售发货作业" style="rounded=1;whiteSpace=wrap;html=1;" vertex="1" parent="1">
          <mxGeometry x="360" y="1430" width="120" height="60" as="geometry" />
        </mxCell>
        <mxCell id="dZm226O0PP0LnAUSpwi5-114" style="edgeStyle=orthogonalEdgeStyle;rounded=0;orthogonalLoop=1;jettySize=auto;html=1;exitX=0.5;exitY=1;exitDx=0;exitDy=0;entryX=0.5;entryY=0;entryDx=0;entryDy=0;" edge="1" parent="1" source="dZm226O0PP0LnAUSpwi5-79" target="dZm226O0PP0LnAUSpwi5-96">
          <mxGeometry relative="1" as="geometry" />
        </mxCell>
        <mxCell id="dZm226O0PP0LnAUSpwi5-79" value="下架作业" style="rounded=1;whiteSpace=wrap;html=1;" vertex="1" parent="1">
          <mxGeometry x="360" y="1840" width="120" height="60" as="geometry" />
        </mxCell>
        <mxCell id="dZm226O0PP0LnAUSpwi5-89" style="edgeStyle=orthogonalEdgeStyle;rounded=0;orthogonalLoop=1;jettySize=auto;html=1;exitX=0.5;exitY=1;exitDx=0;exitDy=0;" edge="1" parent="1" source="dZm226O0PP0LnAUSpwi5-90" target="dZm226O0PP0LnAUSpwi5-95">
          <mxGeometry relative="1" as="geometry" />
        </mxCell>
        <mxCell id="dZm226O0PP0LnAUSpwi5-90" value="出库单汇总" style="rounded=1;whiteSpace=wrap;html=1;" vertex="1" parent="1">
          <mxGeometry x="360" y="1560" width="120" height="60" as="geometry" />
        </mxCell>
        <mxCell id="dZm226O0PP0LnAUSpwi5-91" style="edgeStyle=orthogonalEdgeStyle;rounded=0;orthogonalLoop=1;jettySize=auto;html=1;exitX=0.5;exitY=1;exitDx=0;exitDy=0;entryX=0.5;entryY=0;entryDx=0;entryDy=0;" edge="1" parent="1" source="dZm226O0PP0LnAUSpwi5-95" target="dZm226O0PP0LnAUSpwi5-79">
          <mxGeometry relative="1" as="geometry" />
        </mxCell>
        <mxCell id="dZm226O0PP0LnAUSpwi5-92" value="是" style="edgeLabel;html=1;align=center;verticalAlign=middle;resizable=0;points=[];" vertex="1" connectable="0" parent="dZm226O0PP0LnAUSpwi5-91">
          <mxGeometry x="-0.2048" relative="1" as="geometry">
            <mxPoint as="offset" />
          </mxGeometry>
        </mxCell>
        <mxCell id="dZm226O0PP0LnAUSpwi5-115" style="edgeStyle=orthogonalEdgeStyle;rounded=0;orthogonalLoop=1;jettySize=auto;html=1;exitX=1;exitY=0.5;exitDx=0;exitDy=0;entryX=1;entryY=0.5;entryDx=0;entryDy=0;" edge="1" parent="1" source="dZm226O0PP0LnAUSpwi5-95" target="dZm226O0PP0LnAUSpwi5-96">
          <mxGeometry relative="1" as="geometry">
            <Array as="points">
              <mxPoint x="520" y="1714" />
              <mxPoint x="520" y="2010" />
            </Array>
          </mxGeometry>
        </mxCell>
        <mxCell id="dZm226O0PP0LnAUSpwi5-116" value="否" style="edgeLabel;html=1;align=center;verticalAlign=middle;resizable=0;points=[];" vertex="1" connectable="0" parent="dZm226O0PP0LnAUSpwi5-115">
          <mxGeometry x="0.0606" relative="1" as="geometry">
            <mxPoint as="offset" />
          </mxGeometry>
        </mxCell>
        <mxCell id="dZm226O0PP0LnAUSpwi5-95" value="是否下架" style="rhombus;whiteSpace=wrap;html=1;" vertex="1" parent="1">
          <mxGeometry x="380" y="1674" width="80" height="80" as="geometry" />
        </mxCell>
        <mxCell id="dZm226O0PP0LnAUSpwi5-96" value="库存明细" style="rounded=1;whiteSpace=wrap;html=1;" vertex="1" parent="1">
          <mxGeometry x="360" y="1980" width="120" height="60" as="geometry" />
        </mxCell>
        <mxCell id="dZm226O0PP0LnAUSpwi5-106" style="edgeStyle=orthogonalEdgeStyle;rounded=0;orthogonalLoop=1;jettySize=auto;html=1;exitX=1;exitY=0.5;exitDx=0;exitDy=0;entryX=0;entryY=0.5;entryDx=0;entryDy=0;" edge="1" parent="1" source="dZm226O0PP0LnAUSpwi5-105" target="dZm226O0PP0LnAUSpwi5-33">
          <mxGeometry relative="1" as="geometry" />
        </mxCell>
        <mxCell id="dZm226O0PP0LnAUSpwi5-105" value="委外收货" style="rounded=1;whiteSpace=wrap;html=1;" vertex="1" parent="1">
          <mxGeometry x="160" y="903" width="120" height="60" as="geometry" />
        </mxCell>
        <mxCell id="dZm226O0PP0LnAUSpwi5-107" value="杂发作业" style="rounded=1;whiteSpace=wrap;html=1;" vertex="1" parent="1">
          <mxGeometry x="510" y="1430" width="120" height="60" as="geometry" />
        </mxCell>
        <mxCell id="dZm226O0PP0LnAUSpwi5-108" value="借出作业" style="rounded=1;whiteSpace=wrap;html=1;" vertex="1" parent="1">
          <mxGeometry x="220" y="1430" width="120" height="60" as="geometry" />
        </mxCell>
        <mxCell id="dZm226O0PP0LnAUSpwi5-109" value="检验退货作业" style="rounded=1;whiteSpace=wrap;html=1;" vertex="1" parent="1">
          <mxGeometry x="80" y="1430" width="120" height="60" as="geometry" />
        </mxCell>
        <mxCell id="dZm226O0PP0LnAUSpwi5-110" value="生产领料&amp;amp;补料作业" style="rounded=1;whiteSpace=wrap;html=1;" vertex="1" parent="1">
          <mxGeometry x="660" y="1430" width="120" height="60" as="geometry" />
        </mxCell>
        <mxCell id="dZm226O0PP0LnAUSpwi5-112" value="采购退货作业" style="rounded=1;whiteSpace=wrap;html=1;" vertex="1" parent="1">
          <mxGeometry x="800" y="1430" width="120" height="60" as="geometry" />
        </mxCell>
        <mxCell id="dZm226O0PP0LnAUSpwi5-122" style="edgeStyle=orthogonalEdgeStyle;rounded=0;orthogonalLoop=1;jettySize=auto;html=1;exitX=0.5;exitY=1;exitDx=0;exitDy=0;entryX=0.5;entryY=0;entryDx=0;entryDy=0;" edge="1" parent="1" source="dZm226O0PP0LnAUSpwi5-117" target="dZm226O0PP0LnAUSpwi5-118">
          <mxGeometry relative="1" as="geometry" />
        </mxCell>
        <mxCell id="dZm226O0PP0LnAUSpwi5-117" value="收货区" style="ellipse;whiteSpace=wrap;html=1;" vertex="1" parent="1">
          <mxGeometry x="70" y="330" width="120" height="60" as="geometry" />
        </mxCell>
        <mxCell id="dZm226O0PP0LnAUSpwi5-123" style="edgeStyle=orthogonalEdgeStyle;rounded=0;orthogonalLoop=1;jettySize=auto;html=1;exitX=0.5;exitY=1;exitDx=0;exitDy=0;entryX=0.5;entryY=0;entryDx=0;entryDy=0;" edge="1" parent="1" source="dZm226O0PP0LnAUSpwi5-118" target="dZm226O0PP0LnAUSpwi5-120">
          <mxGeometry relative="1" as="geometry" />
        </mxCell>
        <mxCell id="dZm226O0PP0LnAUSpwi5-118" value="检验区" style="ellipse;whiteSpace=wrap;html=1;" vertex="1" parent="1">
          <mxGeometry x="70" y="440" width="120" height="60" as="geometry" />
        </mxCell>
        <mxCell id="dZm226O0PP0LnAUSpwi5-126" style="edgeStyle=orthogonalEdgeStyle;rounded=0;orthogonalLoop=1;jettySize=auto;html=1;exitX=0.5;exitY=1;exitDx=0;exitDy=0;entryX=0.5;entryY=0;entryDx=0;entryDy=0;" edge="1" parent="1" source="dZm226O0PP0LnAUSpwi5-120" target="dZm226O0PP0LnAUSpwi5-124">
          <mxGeometry relative="1" as="geometry" />
        </mxCell>
        <mxCell id="dZm226O0PP0LnAUSpwi5-120" value="配送区" style="ellipse;whiteSpace=wrap;html=1;" vertex="1" parent="1">
          <mxGeometry x="70" y="540" width="120" height="60" as="geometry" />
        </mxCell>
        <mxCell id="dZm226O0PP0LnAUSpwi5-127" style="edgeStyle=orthogonalEdgeStyle;rounded=0;orthogonalLoop=1;jettySize=auto;html=1;exitX=0.5;exitY=1;exitDx=0;exitDy=0;entryX=0.5;entryY=0;entryDx=0;entryDy=0;" edge="1" parent="1" source="dZm226O0PP0LnAUSpwi5-124" target="dZm226O0PP0LnAUSpwi5-125">
          <mxGeometry relative="1" as="geometry" />
        </mxCell>
        <mxCell id="dZm226O0PP0LnAUSpwi5-124" value="具体仓库" style="ellipse;whiteSpace=wrap;html=1;" vertex="1" parent="1">
          <mxGeometry x="70" y="640" width="120" height="60" as="geometry" />
        </mxCell>
        <mxCell id="dZm226O0PP0LnAUSpwi5-125" value="具体库位" style="ellipse;whiteSpace=wrap;html=1;" vertex="1" parent="1">
          <mxGeometry x="70" y="730" width="120" height="60" as="geometry" />
        </mxCell>
        <mxCell id="dZm226O0PP0LnAUSpwi5-130" style="edgeStyle=orthogonalEdgeStyle;rounded=0;orthogonalLoop=1;jettySize=auto;html=1;exitX=0.5;exitY=1;exitDx=0;exitDy=0;entryX=0.5;entryY=0;entryDx=0;entryDy=0;" edge="1" parent="1" source="dZm226O0PP0LnAUSpwi5-128" target="dZm226O0PP0LnAUSpwi5-129">
          <mxGeometry relative="1" as="geometry" />
        </mxCell>
        <mxCell id="dZm226O0PP0LnAUSpwi5-128" value="具体仓库" style="ellipse;whiteSpace=wrap;html=1;" vertex="1" parent="1">
          <mxGeometry x="120" y="1560" width="120" height="80" as="geometry" />
        </mxCell>
        <mxCell id="dZm226O0PP0LnAUSpwi5-129" value="具体库位" style="ellipse;whiteSpace=wrap;html=1;" vertex="1" parent="1">
          <mxGeometry x="120" y="1700" width="120" height="80" as="geometry" />
        </mxCell>
      </root>
    </mxGraphModel>
  </diagram>
</mxfile>
